<svg xmlns="http://www.w3.org/2000/svg" xmlns:xlink="http://www.w3.org/1999/xlink" width="1080" zoomAndPan="magnify" viewBox="0 0 810 809.999993" height="1080" preserveAspectRatio="xMidYMid meet" version="1.0"><defs><g/></defs><g fill="#ffffff" fill-opacity="1"><g transform="translate(79.858689, 458.949589)"><g><path d="M 41.046875 1.828125 C 37.160156 1.828125 33.097656 1.34375 28.859375 0.375 C 24.628906 -0.59375 20.644531 -2.1875 16.90625 -4.40625 C 13.175781 -6.632812 10.070312 -9.671875 7.59375 -13.515625 C 5.113281 -17.359375 3.695312 -22.15625 3.34375 -27.90625 L 23.265625 -27.90625 C 24.203125 -24.3125 25.582031 -21.523438 27.40625 -19.546875 C 29.238281 -17.578125 31.335938 -16.210938 33.703125 -15.453125 C 36.078125 -14.703125 38.488281 -14.328125 40.9375 -14.328125 C 43.15625 -14.328125 45.234375 -14.648438 47.171875 -15.296875 C 49.117188 -15.941406 50.703125 -16.925781 51.921875 -18.25 C 53.140625 -19.582031 53.75 -21.328125 53.75 -23.484375 C 53.75 -25.640625 52.921875 -27.34375 51.265625 -28.59375 C 49.617188 -29.851562 47.429688 -30.878906 44.703125 -31.671875 C 41.972656 -32.460938 38.992188 -33.21875 35.765625 -33.9375 C 32.316406 -34.71875 28.8125 -35.609375 25.25 -36.609375 C 21.695312 -37.617188 18.429688 -39.003906 15.453125 -40.765625 C 12.472656 -42.523438 10.066406 -44.84375 8.234375 -47.71875 C 6.410156 -50.59375 5.5 -54.289062 5.5 -58.8125 C 5.5 -64.488281 6.863281 -69.175781 9.59375 -72.875 C 12.320312 -76.570312 16 -79.332031 20.625 -81.15625 C 25.257812 -82.988281 30.378906 -83.90625 35.984375 -83.90625 C 41.722656 -83.90625 47.101562 -82.898438 52.125 -80.890625 C 57.15625 -78.878906 61.359375 -75.84375 64.734375 -71.78125 C 68.109375 -67.726562 70.226562 -62.648438 71.09375 -56.546875 L 51.171875 -56.546875 C 50.234375 -60.066406 48.398438 -62.8125 45.671875 -64.78125 C 42.941406 -66.757812 39.566406 -67.75 35.546875 -67.75 C 32.816406 -67.75 30.320312 -67.175781 28.0625 -66.03125 C 25.800781 -64.882812 24.671875 -63.019531 24.671875 -60.4375 C 24.671875 -58.488281 25.457031 -56.90625 27.03125 -55.6875 C 28.613281 -54.46875 30.734375 -53.476562 33.390625 -52.71875 C 36.046875 -51.96875 38.921875 -51.234375 42.015625 -50.515625 C 45.460938 -49.722656 49.015625 -48.804688 52.671875 -47.765625 C 56.335938 -46.734375 59.710938 -45.300781 62.796875 -43.46875 C 65.890625 -41.632812 68.382812 -39.191406 70.28125 -36.140625 C 72.1875 -33.085938 73.140625 -29.191406 73.140625 -24.453125 C 73.140625 -19.066406 71.847656 -14.414062 69.265625 -10.5 C 66.679688 -6.582031 63 -3.546875 58.21875 -1.390625 C 53.445312 0.753906 47.722656 1.828125 41.046875 1.828125 Z M 41.046875 1.828125 "/></g></g></g><g fill="#ffffff" fill-opacity="1"><g transform="translate(156.548423, 458.949589)"><g><path d="M 39.640625 -62.375 C 44.878906 -62.375 49.488281 -61.023438 53.46875 -58.328125 C 57.457031 -55.640625 60.582031 -51.890625 62.84375 -47.078125 C 65.113281 -42.265625 66.25 -36.734375 66.25 -30.484375 C 66.25 -24.304688 65.113281 -18.8125 62.84375 -14 C 60.582031 -9.1875 57.457031 -5.429688 53.46875 -2.734375 C 49.488281 -0.046875 44.878906 1.296875 39.640625 1.296875 C 36.410156 1.296875 33.519531 0.757812 30.96875 -0.3125 C 28.414062 -1.394531 26.097656 -3.484375 24.015625 -6.578125 L 24.015625 21.109375 L 5.921875 21.109375 L 5.921875 -61.078125 L 24.015625 -61.078125 L 24.015625 -54.5 C 26.097656 -57.59375 28.414062 -59.675781 30.96875 -60.75 C 33.519531 -61.832031 36.410156 -62.375 39.640625 -62.375 Z M 34.578125 -46.96875 C 30.628906 -46.96875 27.414062 -45.457031 24.9375 -42.4375 C 22.457031 -39.425781 21.21875 -35.441406 21.21875 -30.484375 C 21.21875 -25.597656 22.457031 -21.644531 24.9375 -18.625 C 27.414062 -15.613281 30.628906 -14.109375 34.578125 -14.109375 C 38.597656 -14.109375 41.828125 -15.632812 44.265625 -18.6875 C 46.710938 -21.738281 47.9375 -25.671875 47.9375 -30.484375 C 47.9375 -35.367188 46.710938 -39.335938 44.265625 -42.390625 C 41.828125 -45.441406 38.597656 -46.96875 34.578125 -46.96875 Z M 34.578125 -46.96875 "/></g></g></g><g fill="#ffffff" fill-opacity="1"><g transform="translate(226.452394, 458.949589)"><g><path d="M 14.96875 -65.28125 C 12.164062 -65.28125 9.757812 -66.101562 7.75 -67.75 C 5.738281 -69.40625 4.734375 -71.671875 4.734375 -74.546875 C 4.734375 -77.410156 5.738281 -79.6875 7.75 -81.375 C 9.757812 -83.0625 12.164062 -83.90625 14.96875 -83.90625 C 17.769531 -83.90625 20.175781 -83.0625 22.1875 -81.375 C 24.195312 -79.6875 25.203125 -77.410156 25.203125 -74.546875 C 25.203125 -71.671875 24.195312 -69.40625 22.1875 -67.75 C 20.175781 -66.101562 17.769531 -65.28125 14.96875 -65.28125 Z M 24.015625 0 L 5.921875 0 L 5.921875 -61.078125 L 24.015625 -61.078125 Z M 24.015625 0 "/></g></g></g><g fill="#ffffff" fill-opacity="1"><g transform="translate(256.395852, 458.949589)"><g><path d="M 24.015625 0 L 5.921875 0 L 5.921875 -61.078125 L 24.015625 -61.078125 L 24.015625 -54.5 C 26.097656 -57.59375 28.414062 -59.675781 30.96875 -60.75 C 33.519531 -61.832031 36.410156 -62.375 39.640625 -62.375 L 42.328125 -62.375 L 42.328125 -45.140625 L 38.890625 -45.140625 C 36.367188 -45.140625 34.28125 -44.847656 32.625 -44.265625 C 30.976562 -43.691406 29.617188 -42.90625 28.546875 -41.90625 C 26.960938 -40.394531 25.8125 -38.363281 25.09375 -35.8125 C 24.375 -33.269531 24.015625 -29.914062 24.015625 -25.75 Z M 24.015625 0 "/></g></g></g><g fill="#ffffff" fill-opacity="1"><g transform="translate(300.557079, 458.949589)"><g><path d="M 14.96875 -65.28125 C 12.164062 -65.28125 9.757812 -66.101562 7.75 -67.75 C 5.738281 -69.40625 4.734375 -71.671875 4.734375 -74.546875 C 4.734375 -77.410156 5.738281 -79.6875 7.75 -81.375 C 9.757812 -83.0625 12.164062 -83.90625 14.96875 -83.90625 C 17.769531 -83.90625 20.175781 -83.0625 22.1875 -81.375 C 24.195312 -79.6875 25.203125 -77.410156 25.203125 -74.546875 C 25.203125 -71.671875 24.195312 -69.40625 22.1875 -67.75 C 20.175781 -66.101562 17.769531 -65.28125 14.96875 -65.28125 Z M 24.015625 0 L 5.921875 0 L 5.921875 -61.078125 L 24.015625 -61.078125 Z M 24.015625 0 "/></g></g></g><g fill="#ffffff" fill-opacity="1"><g transform="translate(330.500536, 458.949589)"><g><path d="M 39.203125 0 L 24.78125 0 C 20.320312 0 16.851562 -1.054688 14.375 -3.171875 C 11.90625 -5.296875 10.671875 -8.296875 10.671875 -12.171875 L 10.671875 -46.96875 L 2.265625 -46.96875 L 2.265625 -61.078125 L 10.671875 -61.078125 L 10.671875 -82.1875 L 28.765625 -82.1875 L 28.765625 -61.078125 L 39.3125 -61.078125 L 39.3125 -46.96875 L 28.765625 -46.96875 L 28.765625 -18.3125 C 28.765625 -17.445312 28.976562 -16.617188 29.40625 -15.828125 C 29.832031 -15.046875 30.835938 -14.65625 32.421875 -14.65625 L 39.203125 -14.65625 Z M 39.203125 0 "/></g></g></g><g fill="#ffffff" fill-opacity="1"><g transform="translate(373.369239, 458.949589)"><g><path d="M 20.6875 0 L 0.21875 0 L 28.328125 -82.1875 L 49.234375 -82.1875 L 77.34375 0 L 56.875 0 L 52.453125 -14.75 L 25.09375 -14.75 Z M 38.78125 -60.75 L 30.15625 -31.453125 L 47.390625 -31.453125 Z M 38.78125 -60.75 "/></g></g></g><g fill="#ffffff" fill-opacity="1"><g transform="translate(450.920645, 458.949589)"><g><path d="M 25.75 0 L 6.46875 0 L 6.46875 -82.1875 L 25.75 -82.1875 Z M 25.75 0 "/></g></g></g><g fill="#ffffff" fill-opacity="1"><g transform="translate(483.233726, 458.949589)"><g><path d="M 39.203125 0 L 24.78125 0 C 20.320312 0 16.851562 -1.054688 14.375 -3.171875 C 11.90625 -5.296875 10.671875 -8.296875 10.671875 -12.171875 L 10.671875 -46.96875 L 2.265625 -46.96875 L 2.265625 -61.078125 L 10.671875 -61.078125 L 10.671875 -82.1875 L 28.765625 -82.1875 L 28.765625 -61.078125 L 39.3125 -61.078125 L 39.3125 -46.96875 L 28.765625 -46.96875 L 28.765625 -18.3125 C 28.765625 -17.445312 28.976562 -16.617188 29.40625 -15.828125 C 29.832031 -15.046875 30.835938 -14.65625 32.421875 -14.65625 L 39.203125 -14.65625 Z M 39.203125 0 "/></g></g></g><g fill="#ffffff" fill-opacity="1"><g transform="translate(526.102428, 458.949589)"><g><path d="M 35.546875 1.296875 C 29.222656 1.296875 23.640625 -0.03125 18.796875 -2.6875 C 13.953125 -5.34375 10.179688 -9.09375 7.484375 -13.9375 C 4.796875 -18.789062 3.453125 -24.453125 3.453125 -30.921875 C 3.453125 -37.160156 4.796875 -42.628906 7.484375 -47.328125 C 10.179688 -52.035156 13.929688 -55.71875 18.734375 -58.375 C 23.546875 -61.039062 29.148438 -62.375 35.546875 -62.375 C 41.941406 -62.375 47.539062 -61.039062 52.34375 -58.375 C 57.15625 -55.71875 60.90625 -52.035156 63.59375 -47.328125 C 66.289062 -42.628906 67.640625 -37.160156 67.640625 -30.921875 C 67.640625 -24.453125 66.3125 -18.8125 63.65625 -14 C 61 -9.1875 57.265625 -5.429688 52.453125 -2.734375 C 47.640625 -0.046875 42.003906 1.296875 35.546875 1.296875 Z M 35.546875 -14.21875 C 39.640625 -14.21875 42.867188 -15.742188 45.234375 -18.796875 C 47.609375 -21.847656 48.796875 -25.890625 48.796875 -30.921875 C 48.796875 -35.660156 47.609375 -39.519531 45.234375 -42.5 C 42.867188 -45.476562 39.640625 -46.96875 35.546875 -46.96875 C 31.523438 -46.96875 28.273438 -45.492188 25.796875 -42.546875 C 23.316406 -39.597656 22.078125 -35.722656 22.078125 -30.921875 C 22.078125 -25.816406 23.316406 -21.753906 25.796875 -18.734375 C 28.273438 -15.722656 31.523438 -14.21875 35.546875 -14.21875 Z M 35.546875 -14.21875 "/></g></g></g><g fill="#ffffff" fill-opacity="1"><g transform="translate(597.191212, 458.949589)"><g><path d="M 35.546875 1.296875 C 29.222656 1.296875 23.640625 -0.03125 18.796875 -2.6875 C 13.953125 -5.34375 10.179688 -9.09375 7.484375 -13.9375 C 4.796875 -18.789062 3.453125 -24.453125 3.453125 -30.921875 C 3.453125 -37.160156 4.796875 -42.628906 7.484375 -47.328125 C 10.179688 -52.035156 13.929688 -55.71875 18.734375 -58.375 C 23.546875 -61.039062 29.148438 -62.375 35.546875 -62.375 C 41.941406 -62.375 47.539062 -61.039062 52.34375 -58.375 C 57.15625 -55.71875 60.90625 -52.035156 63.59375 -47.328125 C 66.289062 -42.628906 67.640625 -37.160156 67.640625 -30.921875 C 67.640625 -24.453125 66.3125 -18.8125 63.65625 -14 C 61 -9.1875 57.265625 -5.429688 52.453125 -2.734375 C 47.640625 -0.046875 42.003906 1.296875 35.546875 1.296875 Z M 35.546875 -14.21875 C 39.640625 -14.21875 42.867188 -15.742188 45.234375 -18.796875 C 47.609375 -21.847656 48.796875 -25.890625 48.796875 -30.921875 C 48.796875 -35.660156 47.609375 -39.519531 45.234375 -42.5 C 42.867188 -45.476562 39.640625 -46.96875 35.546875 -46.96875 C 31.523438 -46.96875 28.273438 -45.492188 25.796875 -42.546875 C 23.316406 -39.597656 22.078125 -35.722656 22.078125 -30.921875 C 22.078125 -25.816406 23.316406 -21.753906 25.796875 -18.734375 C 28.273438 -15.722656 31.523438 -14.21875 35.546875 -14.21875 Z M 35.546875 -14.21875 "/></g></g></g><g fill="#ffffff" fill-opacity="1"><g transform="translate(668.280025, 458.949589)"><g><path d="M 31.78125 0 L 19.609375 0 C 15.148438 0 11.695312 -1.054688 9.25 -3.171875 C 6.8125 -5.296875 5.59375 -8.296875 5.59375 -12.171875 L 5.59375 -82.1875 L 23.703125 -82.1875 L 23.703125 -18.421875 C 23.703125 -16.765625 24.113281 -15.722656 24.9375 -15.296875 C 25.757812 -14.867188 26.53125 -14.65625 27.25 -14.65625 L 31.78125 -14.65625 Z M 31.78125 0 "/></g></g></g><g fill="#ffffff" fill-opacity="1"><g transform="translate(702.531877, 458.949589)"><g><path d="M 33.390625 1.296875 C 30.160156 1.296875 26.894531 0.914062 23.59375 0.15625 C 20.289062 -0.59375 17.164062 -1.828125 14.21875 -3.546875 C 11.269531 -5.273438 8.804688 -7.570312 6.828125 -10.4375 C 4.859375 -13.3125 3.625 -16.867188 3.125 -21.109375 L 20.6875 -21.109375 C 21.6875 -18.023438 23.367188 -15.800781 25.734375 -14.4375 C 28.109375 -13.070312 30.585938 -12.390625 33.171875 -12.390625 C 35.617188 -12.390625 37.664062 -12.875 39.3125 -13.84375 C 40.96875 -14.8125 41.796875 -16.15625 41.796875 -17.875 C 41.796875 -19.957031 40.554688 -21.410156 38.078125 -22.234375 C 35.597656 -23.066406 32.632812 -23.84375 29.1875 -24.5625 C 26.601562 -25.0625 23.925781 -25.671875 21.15625 -26.390625 C 18.394531 -27.109375 15.828125 -28.128906 13.453125 -29.453125 C 11.085938 -30.785156 9.1875 -32.597656 7.75 -34.890625 C 6.3125 -37.191406 5.59375 -40.140625 5.59375 -43.734375 C 5.59375 -48.253906 6.757812 -51.878906 9.09375 -54.609375 C 11.4375 -57.335938 14.472656 -59.3125 18.203125 -60.53125 C 21.941406 -61.757812 25.925781 -62.375 30.15625 -62.375 C 37.625 -62.375 43.867188 -60.523438 48.890625 -56.828125 C 53.921875 -53.128906 57.015625 -47.796875 58.171875 -40.828125 L 41.046875 -40.828125 C 40.179688 -43.765625 38.707031 -45.828125 36.625 -47.015625 C 34.539062 -48.203125 32.347656 -48.796875 30.046875 -48.796875 C 27.828125 -48.796875 26.050781 -48.378906 24.71875 -47.546875 C 23.394531 -46.722656 22.734375 -45.597656 22.734375 -44.171875 C 22.734375 -42.160156 23.988281 -40.738281 26.5 -39.90625 C 29.007812 -39.082031 32.023438 -38.347656 35.546875 -37.703125 C 38.203125 -37.203125 40.929688 -36.609375 43.734375 -35.921875 C 46.535156 -35.242188 49.140625 -34.253906 51.546875 -32.953125 C 53.953125 -31.660156 55.890625 -29.921875 57.359375 -27.734375 C 58.828125 -25.546875 59.5625 -22.65625 59.5625 -19.0625 C 59.5625 -12.957031 57.226562 -8.035156 52.5625 -4.296875 C 47.894531 -0.566406 41.503906 1.296875 33.390625 1.296875 Z M 33.390625 1.296875 "/></g></g></g></svg>